<svg width="45" height="45" viewBox="0 0 45 45" fill="none" xmlns="http://www.w3.org/2000/svg">
<path d="M22.581 0C10.3347 0 0.371582 9.46567 0.371582 21.099C0.371582 26.7513 2.78796 32.1771 7.0344 36.1392V42.1891C7.0344 43.8437 8.77562 44.9208 10.2548 44.1813L16.0936 41.2629C18.2257 41.8826 20.4045 42.198 22.581 42.198C34.8272 42.198 44.7904 32.7323 44.7904 21.099C44.7904 9.46567 34.8272 0 22.581 0Z" fill="#353445"/>
<path fill-rule="evenodd" clip-rule="evenodd" d="M27.3184 8.61957C27.3984 7.92526 27.9776 7.40314 28.6664 7.40314H29.4026C30.0914 7.40314 30.6693 7.92526 30.7479 8.61957L30.8035 9.10292C31.4598 9.33387 32.0529 9.68515 32.5672 10.1368L33.0095 9.94073C33.6413 9.66439 34.3785 9.91044 34.7229 10.5154L35.091 11.1625C35.4354 11.7675 35.2761 12.537 34.7229 12.9536L34.3522 13.2329C34.4165 13.5715 34.4581 13.9199 34.4581 14.2775C34.4581 14.6351 34.4165 14.9835 34.3522 15.3221L34.7229 15.6013C35.2748 16.0179 35.4341 16.7875 35.091 17.3924L34.7229 18.0369C34.3785 18.6418 33.6413 18.8879 33.0095 18.6115L32.5672 18.4182C32.0535 18.8693 31.4615 19.2211 30.8062 19.452L30.7505 19.9354C30.6705 20.6297 30.0914 21.1518 29.4026 21.1518H28.6664C27.9776 21.1518 27.3997 20.6297 27.3211 19.9354L27.2655 19.452C26.6092 19.2211 26.0161 18.8698 25.5017 18.4182L25.0595 18.6142C24.4276 18.8906 23.6905 18.6445 23.3461 18.0396L22.978 17.3924C22.6336 16.7875 22.7929 16.0179 23.3461 15.6013L23.7168 15.3221C23.6525 14.9835 23.6109 14.6351 23.6109 14.2775C23.6109 13.9199 23.6525 13.5715 23.7168 13.2329L23.3461 12.9536C22.7942 12.537 22.6349 11.7675 22.978 11.1625L23.3461 10.5181C23.6905 9.91313 24.4276 9.66707 25.0595 9.94342L25.5017 10.1368C26.0155 9.68569 26.6075 9.33389 27.2628 9.10292L27.3184 8.61957ZM31.4073 14.2775C31.4073 12.9494 30.3443 11.8715 29.0345 11.8715C27.7247 11.8715 26.6617 12.9494 26.6617 14.2775C26.6617 15.607 27.7247 16.6835 29.0345 16.6835C30.3443 16.6835 31.4073 15.607 31.4073 14.2775ZM16.4633 17.0272C15.7745 17.0272 15.1953 17.5493 15.1153 18.2436L14.9856 19.3795C13.8916 19.6951 12.9027 20.2593 12.1096 21.0417L11.0953 20.5986C10.4635 20.3223 9.72629 20.5683 9.38189 21.1733L9.01378 21.8178C8.67074 22.4227 8.83004 23.1923 9.38189 23.6088L10.2796 24.2855C10.1452 24.8255 10.0519 25.3815 10.0519 25.9638C10.0519 26.5461 10.1452 27.1021 10.2796 27.6421L9.38189 28.3188C8.82868 28.7354 8.66938 29.505 9.01378 30.1099L9.38189 30.7544C9.72629 31.3593 10.4634 31.6054 11.0953 31.329L12.1096 30.886C12.9027 31.6684 13.8916 32.2326 14.9856 32.5482L15.118 33.684C15.1966 34.3784 15.7745 34.9005 16.4633 34.9005H17.1995C17.8883 34.9005 18.4675 34.3784 18.5474 33.684L18.6772 32.5482C19.7712 32.2326 20.7601 31.6684 21.5532 30.886L22.5675 31.329C23.1993 31.6054 23.9365 31.3593 24.2809 30.7544L24.649 30.1099C24.992 29.505 24.8327 28.7354 24.2809 28.3188L23.3831 27.6421C23.5176 27.1021 23.6109 26.5461 23.6109 25.9638C23.6109 25.3815 23.5176 24.8255 23.3831 24.2855L24.2809 23.6088C24.8341 23.1923 24.9934 22.4227 24.649 21.8178L24.2809 21.1733C23.9365 20.5683 23.1993 20.3223 22.5675 20.5986L21.5532 21.0417C20.7601 20.2593 19.7712 19.6951 18.6772 19.3795L18.5448 18.2436C18.4662 17.5493 17.8883 17.0272 17.1995 17.0272H16.4633ZM19.5432 25.9638C19.5432 24.4446 18.3297 23.2141 16.8314 23.2141C15.3331 23.2141 14.1196 24.4446 14.1196 25.9638C14.1196 27.4831 15.3331 28.7136 16.8314 28.7136C18.3297 28.7136 19.5432 27.4831 19.5432 25.9638Z" fill="#17162F"/>
</svg>
