<svg width="24" height="24" viewBox="0 0 24 24" fill="none" xmlns="http://www.w3.org/2000/svg">
<path opacity="0.415853" fill-rule="evenodd" clip-rule="evenodd" d="M12 0C5.3724 0 0 5.3724 0 12C0 18.6276 5.3724 24 12 24C18.6276 24 24 18.6276 24 12C24 5.3724 18.6276 0 12 0ZM12 3.3C14.154 3.3 15.9 5.046 15.9 7.2C15.9 9.354 14.154 11.1 12 11.1C9.846 11.1 8.1 9.354 8.1 7.2C8.1 5.046 9.846 3.3 12 3.3ZM4.6944 18.2256C6.4548 20.2908 9.0744 21.6 12 21.6C14.9256 21.6 17.5452 20.2908 19.3068 18.2256C19.764 17.6904 19.662 16.884 19.0992 16.4604C17.2776 15.0912 13.9608 14.4 12 14.4C10.0392 14.4 6.7224 15.0912 4.902 16.4604C4.3392 16.884 4.2372 17.6892 4.6944 18.2256Z" fill="white"/>
</svg>
