<svg width="28" height="28" viewBox="0 0 28 28" fill="none" xmlns="http://www.w3.org/2000/svg">
<path fill-rule="evenodd" clip-rule="evenodd" d="M0 14C0 6.2678 6.2678 0 14 0C21.7322 0 28 6.2678 28 14C28 21.7322 21.7322 28 14 28C6.2678 28 0 21.7322 0 14ZM15.4 15.4H19.6C20.3728 15.4 21 14.7728 21 14C21 13.2272 20.3728 12.6 19.6 12.6H15.4V8.4C15.4 7.6272 14.7728 7 14 7C13.2272 7 12.6 7.6272 12.6 8.4V12.6H8.4C7.6272 12.6 7 13.2272 7 14C7 14.7728 7.6272 15.4 8.4 15.4H12.6V19.6C12.6 20.3728 13.2272 21 14 21C14.7728 21 15.4 20.3728 15.4 19.6V15.4Z" fill="white"/>
</svg>
