<svg width="22" height="19" viewBox="0 0 22 19" fill="none" xmlns="http://www.w3.org/2000/svg">
<path fill-rule="evenodd" clip-rule="evenodd" d="M15.6106 0.127214C15.9647 0.0435544 16.3122 0.00370643 16.6495 0.000242833C16.9868 -0.00322076 17.3139 0.0304493 17.6292 0.0959913C18.0578 0.185512 18.1943 0.710397 17.8834 1.0056L16.6977 2.13169C16.0783 2.71997 16.0783 3.67485 16.6977 4.26313C17.3171 4.85141 18.3226 4.85141 18.942 4.26313L20.1277 3.13705C20.4386 2.84184 20.9912 2.97139 21.0855 3.3785C21.2235 3.97743 21.2299 4.62308 21.0526 5.29555C20.6138 6.9634 19.1024 8.26475 17.307 8.48855C16.4269 8.59807 15.5884 8.4598 14.8545 8.14511L13.1866 9.72912L19.1634 15.4033C20.0128 16.21 20.0128 17.5199 19.1634 18.3277C18.3128 19.1345 16.9335 19.1345 16.084 18.3277L10.1095 12.6515L3.88949 18.5588C3.27007 19.1471 2.26462 19.1471 1.6452 18.5588C1.02578 17.9705 1.02578 17.0156 1.6452 16.4273L12.6102 6.01366C12.2787 5.31667 12.1329 4.52055 12.2486 3.68448C12.4842 1.97932 13.8545 0.543911 15.6106 0.127214ZM1.45891 0.618445C1.64799 0.438871 1.89163 0.334097 2.14271 0.310385C2.39379 0.286672 2.65199 0.344021 2.87474 0.48523L4.47686 1.49891C5.1019 1.89323 5.47627 2.56044 5.47627 3.27234V3.82186L8.51395 6.7068L6.92717 8.21379L3.88949 5.32885H3.31088C2.56129 5.32885 1.85988 4.9733 1.44356 4.37969L0.376212 2.85813C0.0788433 2.43503 0.138317 1.87263 0.51648 1.51348L1.45891 0.618445Z" fill="url(#paint0_linear)"/>
<defs>
<linearGradient id="paint0_linear" x1="5.80842" y1="-13.5788" x2="-2.9527" y2="14.7871" gradientUnits="userSpaceOnUse">
<stop stop-color="#FAD961"/>
<stop offset="1" stop-color="#F76B1C"/>
</linearGradient>
</defs>
</svg>
