<svg width="15" height="19" viewBox="0 0 15 19" fill="none" xmlns="http://www.w3.org/2000/svg">
<path fill-rule="evenodd" clip-rule="evenodd" d="M3.20628 2.56832e-05C3.15448 0.00113228 3.10283 0.00594822 3.05174 0.0144355H1.08448C0.698871 0.0090599 0.340195 0.208761 0.145798 0.53707C-0.0485993 0.865379 -0.0485993 1.27143 0.145798 1.59974C0.340195 1.92805 0.698871 2.12775 1.08448 2.12237H2.15373V3.53865C2.15373 4.93572 2.71642 6.27665 3.72002 7.26459L5.98801 9.50016L3.72002 11.7357C2.71642 12.7237 2.15373 14.0646 2.15373 15.4617V16.878H1.08448C0.698871 16.8726 0.340195 17.0723 0.145798 17.4006C-0.0485993 17.7289 -0.0485993 18.1349 0.145798 18.4633C0.340195 18.7916 0.698871 18.9913 1.08448 18.9859H3.04339C3.15886 19.0047 3.27668 19.0047 3.39215 18.9859H11.5974C11.7129 19.0047 11.8307 19.0047 11.9462 18.9859H13.9155C14.3011 18.9913 14.6598 18.7916 14.8542 18.4633C15.0486 18.1349 15.0486 17.7289 14.8542 17.4006C14.6598 17.0723 14.3011 16.8726 13.9155 16.878H12.8463V15.4617C12.8463 14.0647 12.2822 12.7236 11.28 11.7357L9.01199 9.50016L11.28 7.26459C12.283 6.27591 12.8463 4.93572 12.8463 3.53865V2.12237H13.9155C14.3011 2.12775 14.6598 1.92805 14.8542 1.59974C15.0486 1.27143 15.0486 0.865379 14.8542 0.53707C14.6598 0.208761 14.3011 0.0090599 13.9155 0.0144355H11.9566C11.8411 -0.0043769 11.7233 -0.0043769 11.6079 0.0144355H3.38797C3.32793 0.00454384 3.26715 -0.000276927 3.20628 2.56832e-05ZM4.29224 2.12238H10.7078V3.53865C10.7078 4.3781 10.371 5.17983 9.76799 5.77422L7.5 8.00978L5.23201 5.77216C4.6296 5.17915 4.29224 4.3781 4.29224 3.53865V2.12238ZM9.76799 13.2261L7.5 10.9905L5.23201 13.2282C4.6296 13.8212 4.29224 14.6222 4.29224 15.4617V16.878H10.7078V15.4617C10.7078 14.6242 10.3696 13.8192 9.76799 13.2261Z" fill="url(#paint0_linear)"/>
<defs>
<linearGradient id="paint0_linear" x1="4.01495" y1="-13.5788" x2="-7.30429" y2="12.5985" gradientUnits="userSpaceOnUse">
<stop stop-color="#FAD961"/>
<stop offset="1" stop-color="#F76B1C"/>
</linearGradient>
</defs>
</svg>
