<svg width="17" height="19" viewBox="0 0 17 19" fill="none" xmlns="http://www.w3.org/2000/svg">
<path fill-rule="evenodd" clip-rule="evenodd" d="M14.2633 2.21591H15.0866C15.9923 2.21591 16.7333 2.93182 16.7333 3.80682V16.5341C16.7333 17.4091 15.9923 18.125 15.0866 18.125H1.91327C1.0076 18.125 0.266602 17.4091 0.266602 16.5341V3.80682C0.266602 2.93182 1.0076 2.21591 1.91327 2.21591H2.7366V1.42045C2.7366 0.982955 3.1071 0.625 3.55993 0.625C4.01277 0.625 4.38327 0.982955 4.38327 1.42045V2.21591H12.6166V1.42045C12.6166 0.982955 12.9871 0.625 13.4399 0.625C13.8928 0.625 14.2633 0.982955 14.2633 1.42045V2.21591ZM2.7366 16.5341H14.2633C14.7161 16.5341 15.0866 16.1761 15.0866 15.7386V6.19318H1.91327V15.7386C1.91327 16.1761 2.28377 16.5341 2.7366 16.5341Z" fill="url(#paint0_linear)"/>
<defs>
<linearGradient id="paint0_linear" x1="4.67412" y1="-11.8818" x2="-4.50101" y2="13.4083" gradientUnits="userSpaceOnUse">
<stop stop-color="#FAD961"/>
<stop offset="1" stop-color="#F76B1C"/>
</linearGradient>
</defs>
</svg>
