<svg width="12" height="23" viewBox="0 0 12 23" fill="none" xmlns="http://www.w3.org/2000/svg">
<path d="M9.81818 6.27229V17.1442C9.81818 18.8902 8.58655 20.4793 6.80182 20.8295C4.34836 21.3115 2.18182 19.5185 2.18182 17.2498V4.29947C2.18182 3.25818 2.92145 2.29006 3.99382 2.11965C5.35964 1.90324 6.54545 2.91212 6.54545 4.18133V15.1589C6.54545 15.4474 6.3 15.6816 6 15.6816C5.7 15.6816 5.45455 15.4474 5.45455 15.1589V6.27229C5.45455 5.69519 4.96582 5.22681 4.36364 5.22681C3.76145 5.22681 3.27273 5.69519 3.27273 6.27229V15.0052C3.27273 16.3727 4.29709 17.621 5.71636 17.759C7.34727 17.9179 8.72727 16.6894 8.72727 15.1589V4.36743C8.72727 2.18447 7.06582 0.231514 4.79891 0.020327C2.19709 -0.222224 0 1.73805 0 4.18133V16.9937C0 19.9953 2.28327 22.68 5.39891 22.9717C8.976 23.3073 12 20.61 12 17.2498V6.27229C12 5.69519 11.5113 5.22681 10.9091 5.22681C10.3069 5.22681 9.81818 5.69519 9.81818 6.27229Z" fill="url(#paint0_linear)"/>
<defs>
<linearGradient id="paint0_linear" x1="3.21196" y1="-16.4375" x2="-14.0209" y2="9.90038" gradientUnits="userSpaceOnUse">
<stop stop-color="#FAD961"/>
<stop offset="1" stop-color="#F76B1C"/>
</linearGradient>
</defs>
</svg>
