<svg width="14" height="20" viewBox="0 0 14 20" fill="none" xmlns="http://www.w3.org/2000/svg">
<path fill-rule="evenodd" clip-rule="evenodd" d="M0 7C0 3.134 3.134 0 7 0C10.866 0 14 3.134 14 7C14 10.966 9.596 16.82 7.774 19.071C7.374 19.565 6.626 19.565 6.226 19.071C4.404 16.82 0 10.966 0 7ZM4.5 7C4.5 8.381 5.619 9.5 7 9.5C8.381 9.5 9.5 8.381 9.5 7C9.5 5.619 8.381 4.5 7 4.5C5.619 4.5 4.5 5.619 4.5 7Z" fill="url(#paint0_linear)"/>
<defs>
<linearGradient id="paint0_linear" x1="3.74728" y1="-13.8943" x2="-8.55919" y2="12.0656" gradientUnits="userSpaceOnUse">
<stop stop-color="#FAD961"/>
<stop offset="1" stop-color="#F76B1C"/>
</linearGradient>
</defs>
</svg>
