<svg width="20" height="15" viewBox="0 0 20 15" fill="none" xmlns="http://www.w3.org/2000/svg">
<path fill-rule="evenodd" clip-rule="evenodd" d="M1.0275 0.770607C0.667964 0.76559 0.333545 0.951957 0.152295 1.25834C-0.0289551 1.56473 -0.0289551 1.94367 0.152295 2.25005C0.333545 2.55644 0.667964 2.74281 1.0275 2.73779H18.9724C19.332 2.74281 19.6664 2.55644 19.8476 2.25005C20.0289 1.94367 20.0289 1.56473 19.8476 1.25834C19.6664 0.951957 19.332 0.76559 18.9724 0.770607H1.0275ZM7.91274 6.67216C7.55321 6.66714 7.21879 6.85351 7.03754 7.1599C6.85629 7.46628 6.85629 7.84522 7.03754 8.15161C7.21879 8.458 7.55321 8.64436 7.91274 8.63935H18.9724C19.332 8.64436 19.6664 8.458 19.8476 8.15161C20.0289 7.84522 20.0289 7.46628 19.8476 7.1599C19.6664 6.85351 19.332 6.66714 18.9724 6.67216H7.91274ZM0.152295 13.0615C0.333545 12.7551 0.667964 12.5687 1.0275 12.5737H18.9724C19.332 12.5687 19.6664 12.7551 19.8476 13.0615C20.0289 13.3678 20.0289 13.7468 19.8476 14.0532C19.6664 14.3596 19.332 14.5459 18.9724 14.5409H1.0275C0.667964 14.5459 0.333545 14.3596 0.152295 14.0532C-0.0289551 13.7468 -0.0289551 13.3678 0.152295 13.0615Z" fill="white"/>
</svg>
