<svg width="24" height="24" viewBox="0 0 24 24" fill="none" xmlns="http://www.w3.org/2000/svg">
<path fill-rule="evenodd" clip-rule="evenodd" d="M12 0C5.3724 0 0 5.3724 0 12C0 18.6276 5.3724 24 12 24C18.6276 24 24 18.6276 24 12C24 5.3724 18.6276 0 12 0ZM12 18C11.3376 18 10.8 17.4624 10.8 16.8V12C10.8 11.3376 11.3376 10.8 12 10.8C12.6624 10.8 13.2 11.3376 13.2 12V16.8C13.2 17.4624 12.6624 18 12 18ZM11.4 8.4H12.6C12.9312 8.4 13.2 8.1312 13.2 7.8V6.6C13.2 6.2688 12.9312 6 12.6 6H11.4C11.0688 6 10.8 6.2688 10.8 6.6V7.8C10.8 8.1312 11.0688 8.4 11.4 8.4Z" fill="white"/>
</svg>
