<svg width="32" height="25" viewBox="0 0 32 25" fill="none" xmlns="http://www.w3.org/2000/svg">
<path opacity="0.213542" fill-rule="evenodd" clip-rule="evenodd" d="M28.8 0H3.2C1.432 0 0 1.39844 0 3.125V21.875C0 23.6016 1.432 25 3.2 25H28.8C30.568 25 32 23.6016 32 21.875V3.125C32 1.39844 30.568 0 28.8 0ZM12.8 6.25C13.6832 6.25 14.4 6.95 14.4 7.8125C14.4 8.675 13.6832 9.375 12.8 9.375C11.9168 9.375 11.2 8.675 11.2 7.8125C11.2 6.95 11.9168 6.25 12.8 6.25ZM6.4352 20.3125H25.6C26.2592 20.3125 26.6352 19.5781 26.24 19.0625L20.6288 11.7578C20.312 11.3453 19.68 11.3391 19.3568 11.7469L14.4 17.9844L11.0352 14.0297C10.7088 13.6453 10.1024 13.6547 9.7888 14.0484L5.8048 19.0516C5.3952 19.5641 5.7696 20.3125 6.4352 20.3125Z" fill="white"/>
</svg>
