<svg width="24" height="24" viewBox="0 0 24 24" fill="none" xmlns="http://www.w3.org/2000/svg">
<path fill-rule="evenodd" clip-rule="evenodd" d="M12 0C5.3868 0 0 5.3868 0 12C0 18.6132 5.3868 24 12 24C18.6132 24 24 18.6132 24 12C24 5.3868 18.6132 0 12 0ZM12 2.4C17.3161 2.4 21.6 6.68385 21.6 12C21.6 17.3161 17.3161 21.6 12 21.6C6.68385 21.6 2.4 17.3161 2.4 12C2.4 6.68385 6.68385 2.4 12 2.4ZM10.7812 4.89844C11.1126 4.84399 11.4401 4.81267 11.7633 4.80234C14.0256 4.73006 16.0576 5.70759 17.4258 7.27734L12 12.7031L10.0969 10.8C9.62887 10.332 8.868 10.332 8.4 10.8C7.932 11.268 7.932 12.0289 8.4 12.4969L11.1516 15.2484C11.6196 15.7164 12.3804 15.7152 12.8484 15.2484L18.7055 9.39141C19.2371 10.7558 19.3828 12.3156 18.9328 13.95C18.226 16.518 16.0761 18.5422 13.4625 19.057C8.5017 20.0326 4.20197 15.9074 4.86797 10.9922C5.28317 7.92499 7.72725 5.40124 10.7812 4.89844Z" fill="#24AF19"/>
</svg>
