<svg width="56" height="53" viewBox="0 0 56 53" fill="none" xmlns="http://www.w3.org/2000/svg">
<g opacity="0.356329">
<path fill-rule="evenodd" clip-rule="evenodd" d="M14.6388 0.819081C15.1532 0.294768 15.8508 0.000142639 16.5783 0H30.0584C30.7911 0.000126966 31.4933 0.298998 32.0086 0.830002L36.6859 5.6462L38.7968 3.49475C39.8667 2.40159 41.606 2.40159 42.6758 3.49475L48.5747 9.5068C49.6473 10.5972 49.6473 12.3671 48.5747 13.4602L46.4155 15.6608L55.2076 24.7144C56.2683 25.808 56.2635 27.5693 55.1968 28.6569L47.4388 36.5638C46.3676 37.6552 44.6311 37.6552 43.5598 36.5638L34.7303 27.5648L11.7992 50.9359C10.4935 52.2667 8.75912 53 6.91297 53C5.06683 53 3.32711 52.2695 2.02136 50.9359C-0.67516 48.1904 -0.672416 43.7187 2.02136 40.9704L24.9524 17.5993L13.503 5.93015C12.4321 4.8383 12.4321 3.06856 13.503 1.97672L14.6388 0.819081ZM28.9118 5.59159H20.9288L45.4993 30.6336L49.3891 26.6693L28.9118 5.59159Z" fill="white"/>
</g>
</svg>
