<svg width="24" height="24" viewBox="0 0 24 24" fill="none" xmlns="http://www.w3.org/2000/svg">
<path fill-rule="evenodd" clip-rule="evenodd" d="M0 12C0 5.364 5.364 0 12 0C18.636 0 24 5.364 24 12C24 18.636 18.636 24 12 24C5.364 24 0 18.636 0 12ZM17.6484 17.6484C18.1176 17.1792 18.1176 16.4208 17.6484 15.9516L13.6968 12L17.6484 8.0484C18.1176 7.5792 18.1176 6.8208 17.6484 6.3516C17.1792 5.8824 16.4208 5.8824 15.9516 6.3516L12 10.3032L8.0484 6.3516C7.5792 5.8824 6.8208 5.8824 6.3516 6.3516C5.8824 6.8208 5.8824 7.5792 6.3516 8.0484L10.3032 12L6.3516 15.9516C5.8824 16.4208 5.8824 17.1792 6.3516 17.6484C6.5856 17.8824 6.8928 18 7.2 18C7.5072 18 7.8144 17.8824 8.0484 17.6484L12 13.6968L15.9516 17.6484C16.1856 17.8824 16.4928 18 16.8 18C17.1072 18 17.4144 17.8824 17.6484 17.6484Z" fill="#F13434"/>
</svg>
