<svg width="11" height="11" viewBox="0 0 11 11" fill="none" xmlns="http://www.w3.org/2000/svg">
<path fill-rule="evenodd" clip-rule="evenodd" d="M6.50669 9.8795C5.89091 9.49406 5.10909 9.49406 4.49331 9.8795C3.04569 10.7856 1.23151 9.46754 1.64593 7.81076C1.82222 7.10601 1.58062 6.36246 1.02376 5.89592C-0.285343 4.79915 0.407611 2.66646 2.11136 2.54863C2.8361 2.4985 3.4686 2.03897 3.74022 1.36519C4.37878 -0.218762 6.62122 -0.218762 7.25978 1.36519C7.5314 2.03897 8.1639 2.4985 8.88864 2.54863C10.5924 2.66646 11.2853 4.79915 9.97624 5.89592C9.41938 6.36246 9.17778 7.10601 9.35407 7.81076C9.76849 9.46754 7.95431 10.7856 6.50669 9.8795Z" fill="#D8D8D8"/>
</svg>
