<svg width="11" height="11" viewBox="0 0 11 11" fill="none" xmlns="http://www.w3.org/2000/svg">
<path fill-rule="evenodd" clip-rule="evenodd" d="M6.50669 9.8795C5.8909 9.49406 5.10909 9.49406 4.4933 9.8795V9.8795C3.04568 10.7856 1.2315 9.46754 1.64593 7.81076V7.81076C1.82221 7.10601 1.58062 6.36246 1.02375 5.89592V5.89592C-0.285347 4.79915 0.407608 2.66646 2.11136 2.54863V2.54863C2.83609 2.4985 3.46859 2.03897 3.74022 1.36519V1.36519C4.37877 -0.218762 6.62122 -0.218762 7.25977 1.36519V1.36519C7.5314 2.03897 8.1639 2.4985 8.88864 2.54863V2.54863C10.5924 2.66646 11.2853 4.79915 9.97624 5.89592V5.89592C9.41937 6.36246 9.17778 7.10601 9.35407 7.81076V7.81076C9.76849 9.46754 7.95431 10.7856 6.50669 9.8795V9.8795Z" fill="url(#paint0_linear)"/>
<defs>
<linearGradient id="paint0_linear" x1="1.55027" y1="-15.1495" x2="-6.94973" y2="9.75" gradientUnits="userSpaceOnUse">
<stop stop-color="#FAD961"/>
<stop offset="1" stop-color="#F76B1C"/>
</linearGradient>
</defs>
</svg>
