<svg width="30" height="30" viewBox="0 0 30 30" fill="none" xmlns="http://www.w3.org/2000/svg">
<path fill-rule="evenodd" clip-rule="evenodd" d="M0 15C0 6.7155 6.7155 0 15 0C23.2845 0 30 6.7155 30 15C30 23.2845 23.2845 30 15 30C6.7155 30 0 23.2845 0 15ZM13.0605 22.0605L23.5605 11.5605C24.147 10.974 24.147 10.026 23.5605 9.4395C22.974 8.853 22.026 8.853 21.4395 9.4395L12 18.879L8.5605 15.4395C7.974 14.853 7.026 14.853 6.4395 15.4395C5.853 16.026 5.853 16.974 6.4395 17.5605L10.9395 22.0605C11.232 22.353 11.616 22.5 12 22.5C12.384 22.5 12.768 22.353 13.0605 22.0605Z" fill="#2FC140"/>
</svg>
