<svg width="35" height="34" viewBox="0 0 35 34" fill="none" xmlns="http://www.w3.org/2000/svg">
<path d="M17.4246 0C8.06594 0 0.452026 7.23374 0.452026 16.124C0.452026 20.4436 2.29865 24.59 5.54381 27.6179V32.2412C5.54381 33.5057 6.87446 34.3289 8.00483 33.7637L12.4669 31.5335C14.0963 32.007 15.7613 32.248 17.4246 32.248C26.7833 32.248 34.3972 25.0143 34.3972 16.124C34.3972 7.23374 26.7833 0 17.4246 0Z" fill="url(#paint0_linear)"/>
<path fill-rule="evenodd" clip-rule="evenodd" d="M21.0448 6.58714C21.1059 6.05655 21.5485 5.65753 22.0749 5.65753H22.6375C23.1639 5.65753 23.6055 6.05655 23.6656 6.58714L23.7081 6.95652C24.2097 7.13301 24.6629 7.40146 25.056 7.74659L25.394 7.59678C25.8768 7.3856 26.4402 7.57364 26.7034 8.03594L26.9847 8.5305C27.2479 8.9928 27.1261 9.5809 26.7034 9.89926L26.42 10.1127C26.4692 10.3714 26.501 10.6377 26.501 10.911C26.501 11.1842 26.4692 11.4505 26.42 11.7092L26.7034 11.9227C27.1251 12.241 27.2468 12.8291 26.9847 13.2914L26.7034 13.7839C26.4402 14.2462 25.8768 14.4343 25.394 14.2231L25.056 14.0753C24.6634 14.42 24.211 14.6889 23.7102 14.8654L23.6677 15.2348C23.6065 15.7654 23.1639 16.1644 22.6375 16.1644H22.0749C21.5485 16.1644 21.1069 15.7654 21.0468 15.2348L21.0043 14.8654C20.5028 14.6889 20.0496 14.4205 19.6565 14.0753L19.3185 14.2251C18.8356 14.4363 18.2723 14.2483 18.0091 13.786L17.7278 13.2914C17.4646 12.8291 17.5863 12.241 18.0091 11.9227L18.2924 11.7092C18.2433 11.4505 18.2115 11.1842 18.2115 10.911C18.2115 10.6377 18.2433 10.3714 18.2924 10.1127L18.0091 9.89926C17.5874 9.5809 17.4656 8.9928 17.7278 8.5305L18.0091 8.03799C18.2723 7.57569 18.8356 7.38765 19.3185 7.59884L19.6565 7.74659C20.0491 7.40188 20.5015 7.13303 21.0023 6.95652L21.0448 6.58714ZM24.1696 10.911C24.1696 9.89599 23.3572 9.07226 22.3562 9.07226C21.3553 9.07226 20.5429 9.89599 20.5429 10.911C20.5429 11.927 21.3553 12.7497 22.3562 12.7497C23.3572 12.7497 24.1696 11.927 24.1696 10.911ZM12.7492 13.0123C12.2228 13.0123 11.7802 13.4113 11.7191 13.9419L11.6199 14.81C10.7839 15.0512 10.0282 15.4823 9.42208 16.0802L8.64696 15.7416C8.1641 15.5305 7.60075 15.7185 7.33756 16.1808L7.05625 16.6733C6.79409 17.1356 6.91583 17.7237 7.33756 18.0421L8.02363 18.5592C7.92086 18.9719 7.84958 19.3968 7.84958 19.8418C7.84958 20.2868 7.92086 20.7117 8.02363 21.1244L7.33756 21.6415C6.91479 21.9598 6.79305 22.5479 7.05625 23.0103L7.33756 23.5028C7.60075 23.9651 8.1641 24.1531 8.64696 23.9419L9.42208 23.6033C10.0282 24.2012 10.7839 24.6324 11.6199 24.8736L11.7211 25.7416C11.7812 26.2722 12.2228 26.6712 12.7492 26.6712H13.3118C13.8382 26.6712 14.2808 26.2722 14.342 25.7416L14.4411 24.8736C15.2772 24.6324 16.0329 24.2012 16.639 23.6033L17.4141 23.9419C17.897 24.1531 18.4603 23.9651 18.7235 23.5028L19.0048 23.0103C19.267 22.5479 19.1452 21.9598 18.7235 21.6415L18.0374 21.1244C18.1402 20.7117 18.2115 20.2868 18.2115 19.8418C18.2115 19.3968 18.1402 18.9719 18.0374 18.5592L18.7235 18.0421C19.1463 17.7237 19.268 17.1356 19.0048 16.6733L18.7235 16.1808C18.4603 15.7185 17.897 15.5305 17.4141 15.7416L16.639 16.0802C16.0329 15.4823 15.2772 15.0512 14.4411 14.81L14.3399 13.9419C14.2798 13.4113 13.8382 13.0123 13.3118 13.0123H12.7492ZM15.1029 19.8418C15.1029 18.6808 14.1755 17.7404 13.0305 17.7404C11.8855 17.7404 10.9581 18.6808 10.9581 19.8418C10.9581 21.0028 11.8855 21.9431 13.0305 21.9431C14.1755 21.9431 15.1029 21.0028 15.1029 19.8418Z" fill="#17162F"/>
<defs>
<linearGradient id="paint0_linear" x1="9.5379" y1="-24.2598" x2="-7.4347" y2="25.4589" gradientUnits="userSpaceOnUse">
<stop stop-color="#FAD961"/>
<stop offset="1" stop-color="#F76B1C"/>
</linearGradient>
</defs>
</svg>
